<svg width="18" height="24" viewBox="0 0 18 24" fill="none" xmlns="http://www.w3.org/2000/svg">
<path fill-rule="evenodd" clip-rule="evenodd" d="M8.627 22.255C10.6496 22.2547 12.5893 21.4511 14.0195 20.0208C15.4496 18.5904 16.253 16.6506 16.253 14.628C16.253 11.82 13.711 7.444 8.627 1.5C3.542 7.444 1 11.82 1 14.628C1 16.6508 1.80356 18.5908 3.2339 20.0211C4.66424 21.4514 6.60419 22.255 8.627 22.255V22.255Z" stroke="#5EC49E" stroke-width="1.5" stroke-linejoin="round"/>
<path d="M8.62695 17.66C9.12768 17.66 9.62351 17.5614 10.0861 17.3697C10.5487 17.1781 10.9691 16.8973 11.3232 16.5432C11.6772 16.1891 11.9581 15.7688 12.1497 15.3062C12.3413 14.8435 12.44 14.3477 12.44 13.847" stroke="#5EC49E" stroke-width="1.5" stroke-linecap="round"/>
</svg>
