<svg width="22" height="26" viewBox="0 0 22 26" fill="none" xmlns="http://www.w3.org/2000/svg">
<path fill-rule="evenodd" clip-rule="evenodd" d="M11.0062 25C11.0062 25 1.7002 17.544 1.7002 10.306C1.7002 7.8379 2.68065 5.47088 4.42586 3.72566C6.17107 1.98045 8.53809 1 11.0062 1C13.4743 1 15.8413 1.98045 17.5865 3.72566C19.3317 5.47088 20.3122 7.8379 20.3122 10.306C20.3122 17.544 11.0062 25 11.0062 25Z" stroke="#333333" stroke-width="1.7" stroke-linecap="round" stroke-linejoin="round"/>
<path d="M10.9119 12.907C12.4495 12.907 13.6959 11.6606 13.6959 10.123C13.6959 8.58543 12.4495 7.33899 10.9119 7.33899C9.37437 7.33899 8.12793 8.58543 8.12793 10.123C8.12793 11.6606 9.37437 12.907 10.9119 12.907Z" stroke="#333333" stroke-width="1.7" stroke-linecap="square" stroke-linejoin="round"/>
</svg>
